<mxfile host="Electron" modified="2023-08-26T08:33:25.953Z" agent="Mozilla/5.0 (Windows NT 10.0; Win64; x64) AppleWebKit/537.36 (KHTML, like Gecko) draw.io/21.6.8 Chrome/114.0.5735.289 Electron/25.5.0 Safari/537.36" etag="QJmqLRFlPHEnfBejvtDa" version="21.6.8" type="device">
  <diagram name="Page-1" id="ieDIYA_swwrAIEChpHFk">
    <mxGraphModel dx="648" dy="389" grid="1" gridSize="10" guides="1" tooltips="1" connect="1" arrows="1" fold="1" page="1" pageScale="1" pageWidth="827" pageHeight="1169" math="0" shadow="0">
      <root>
        <mxCell id="0" />
        <mxCell id="1" parent="0" />
        <mxCell id="45Ii6qkF4x4RbLBeoCnF-1" value="Modello concettuale Entity/Relation" style="text;html=1;strokeColor=#82b366;fillColor=#d5e8d4;align=center;verticalAlign=middle;whiteSpace=wrap;rounded=0;fontSize=18;fontStyle=1" parent="1" vertex="1">
          <mxGeometry x="10" y="10" width="810" height="30" as="geometry" />
        </mxCell>
        <mxCell id="45Ii6qkF4x4RbLBeoCnF-12" style="edgeStyle=orthogonalEdgeStyle;rounded=0;orthogonalLoop=1;jettySize=auto;html=1;exitX=1;exitY=0.5;exitDx=0;exitDy=0;entryX=0.02;entryY=0.174;entryDx=0;entryDy=0;endArrow=none;endFill=0;entryPerimeter=0;" parent="1" source="45Ii6qkF4x4RbLBeoCnF-19" target="45Ii6qkF4x4RbLBeoCnF-9" edge="1">
          <mxGeometry relative="1" as="geometry" />
        </mxCell>
        <mxCell id="45Ii6qkF4x4RbLBeoCnF-2" value="PRODUCTS" style="rounded=0;whiteSpace=wrap;html=1;" parent="1" vertex="1">
          <mxGeometry x="64" y="713" width="120" height="60" as="geometry" />
        </mxCell>
        <mxCell id="45Ii6qkF4x4RbLBeoCnF-17" style="edgeStyle=orthogonalEdgeStyle;rounded=0;orthogonalLoop=1;jettySize=auto;html=1;endArrow=none;endFill=0;entryX=0;entryY=0.25;entryDx=0;entryDy=0;exitX=0;exitY=0.5;exitDx=0;exitDy=0;" parent="1" source="AbspemG0DcN9fMY0QWew-2" target="45Ii6qkF4x4RbLBeoCnF-2" edge="1">
          <mxGeometry relative="1" as="geometry">
            <mxPoint x="154" y="688" as="sourcePoint" />
          </mxGeometry>
        </mxCell>
        <mxCell id="45Ii6qkF4x4RbLBeoCnF-11" style="edgeStyle=orthogonalEdgeStyle;rounded=0;orthogonalLoop=1;jettySize=auto;html=1;exitX=0.044;exitY=0.494;exitDx=0;exitDy=0;entryX=1;entryY=0.5;entryDx=0;entryDy=0;endArrow=none;endFill=0;exitPerimeter=0;" parent="1" source="45Ii6qkF4x4RbLBeoCnF-21" target="45Ii6qkF4x4RbLBeoCnF-9" edge="1">
          <mxGeometry relative="1" as="geometry" />
        </mxCell>
        <mxCell id="45Ii6qkF4x4RbLBeoCnF-220" style="edgeStyle=orthogonalEdgeStyle;rounded=0;orthogonalLoop=1;jettySize=auto;html=1;exitX=0;exitY=0.25;exitDx=0;exitDy=0;endArrow=none;endFill=0;" parent="1" source="45Ii6qkF4x4RbLBeoCnF-5" edge="1">
          <mxGeometry relative="1" as="geometry">
            <mxPoint x="510" y="660" as="targetPoint" />
            <Array as="points">
              <mxPoint x="510" y="758" />
              <mxPoint x="510" y="660" />
            </Array>
          </mxGeometry>
        </mxCell>
        <mxCell id="45Ii6qkF4x4RbLBeoCnF-5" value="CUSTOMERS" style="rounded=0;whiteSpace=wrap;html=1;" parent="1" vertex="1">
          <mxGeometry x="598" y="743" width="120" height="60" as="geometry" />
        </mxCell>
        <mxCell id="45Ii6qkF4x4RbLBeoCnF-171" style="edgeStyle=orthogonalEdgeStyle;rounded=0;orthogonalLoop=1;jettySize=auto;html=1;exitX=0.5;exitY=0;exitDx=0;exitDy=0;endArrow=none;endFill=0;entryX=0;entryY=0.75;entryDx=0;entryDy=0;" parent="1" source="45Ii6qkF4x4RbLBeoCnF-172" target="45Ii6qkF4x4RbLBeoCnF-7" edge="1">
          <mxGeometry relative="1" as="geometry">
            <mxPoint x="418" y="455" as="targetPoint" />
          </mxGeometry>
        </mxCell>
        <mxCell id="45Ii6qkF4x4RbLBeoCnF-6" value="E-SELLER" style="rounded=0;whiteSpace=wrap;html=1;" parent="1" vertex="1">
          <mxGeometry x="340" y="639" width="120" height="60" as="geometry" />
        </mxCell>
        <mxCell id="45Ii6qkF4x4RbLBeoCnF-14" style="edgeStyle=orthogonalEdgeStyle;rounded=0;orthogonalLoop=1;jettySize=auto;html=1;endArrow=none;endFill=0;exitX=0.5;exitY=1;exitDx=0;exitDy=0;entryX=0.25;entryY=0;entryDx=0;entryDy=0;" parent="1" source="45Ii6qkF4x4RbLBeoCnF-25" target="45Ii6qkF4x4RbLBeoCnF-9" edge="1">
          <mxGeometry relative="1" as="geometry">
            <mxPoint x="225" y="911" as="sourcePoint" />
            <mxPoint x="340" y="810" as="targetPoint" />
            <Array as="points">
              <mxPoint x="251" y="810" />
              <mxPoint x="365" y="810" />
            </Array>
          </mxGeometry>
        </mxCell>
        <mxCell id="45Ii6qkF4x4RbLBeoCnF-221" style="edgeStyle=orthogonalEdgeStyle;rounded=0;orthogonalLoop=1;jettySize=auto;html=1;exitX=0.5;exitY=1;exitDx=0;exitDy=0;endArrow=none;endFill=0;" parent="1" source="45Ii6qkF4x4RbLBeoCnF-222" edge="1">
          <mxGeometry relative="1" as="geometry">
            <mxPoint x="510" y="650" as="targetPoint" />
          </mxGeometry>
        </mxCell>
        <mxCell id="45Ii6qkF4x4RbLBeoCnF-7" value="DATE" style="rounded=0;whiteSpace=wrap;html=1;" parent="1" vertex="1">
          <mxGeometry x="345" y="282" width="120" height="60" as="geometry" />
        </mxCell>
        <mxCell id="45Ii6qkF4x4RbLBeoCnF-15" style="edgeStyle=orthogonalEdgeStyle;rounded=0;orthogonalLoop=1;jettySize=auto;html=1;exitX=0.5;exitY=1;exitDx=0;exitDy=0;entryX=1;entryY=0.75;entryDx=0;entryDy=0;endArrow=none;endFill=0;" parent="1" source="45Ii6qkF4x4RbLBeoCnF-174" target="45Ii6qkF4x4RbLBeoCnF-5" edge="1">
          <mxGeometry relative="1" as="geometry">
            <Array as="points">
              <mxPoint x="771" y="788" />
            </Array>
          </mxGeometry>
        </mxCell>
        <mxCell id="45Ii6qkF4x4RbLBeoCnF-115" style="edgeStyle=orthogonalEdgeStyle;rounded=0;orthogonalLoop=1;jettySize=auto;html=1;exitX=0.5;exitY=0;exitDx=0;exitDy=0;entryX=1;entryY=0.75;entryDx=0;entryDy=0;endArrow=none;endFill=0;" parent="1" source="45Ii6qkF4x4RbLBeoCnF-178" target="45Ii6qkF4x4RbLBeoCnF-114" edge="1">
          <mxGeometry relative="1" as="geometry">
            <Array as="points">
              <mxPoint x="750" y="320" />
              <mxPoint x="750" y="211" />
            </Array>
          </mxGeometry>
        </mxCell>
        <mxCell id="45Ii6qkF4x4RbLBeoCnF-181" style="edgeStyle=orthogonalEdgeStyle;rounded=0;orthogonalLoop=1;jettySize=auto;html=1;exitX=0.5;exitY=1;exitDx=0;exitDy=0;entryX=1;entryY=0.25;entryDx=0;entryDy=0;endArrow=none;endFill=0;" parent="1" source="45Ii6qkF4x4RbLBeoCnF-182" target="45Ii6qkF4x4RbLBeoCnF-6" edge="1">
          <mxGeometry relative="1" as="geometry" />
        </mxCell>
        <mxCell id="45Ii6qkF4x4RbLBeoCnF-8" value="TERRITORY" style="rounded=0;whiteSpace=wrap;html=1;" parent="1" vertex="1">
          <mxGeometry x="577" y="424" width="120" height="60" as="geometry" />
        </mxCell>
        <mxCell id="45Ii6qkF4x4RbLBeoCnF-9" value="SALES" style="rounded=0;whiteSpace=wrap;html=1;" parent="1" vertex="1">
          <mxGeometry x="335" y="852" width="120" height="60" as="geometry" />
        </mxCell>
        <mxCell id="45Ii6qkF4x4RbLBeoCnF-20" value="" style="edgeStyle=orthogonalEdgeStyle;rounded=0;orthogonalLoop=1;jettySize=auto;html=1;exitX=1;exitY=0.75;exitDx=0;exitDy=0;entryX=0.5;entryY=0;entryDx=0;entryDy=0;endArrow=none;endFill=0;" parent="1" source="45Ii6qkF4x4RbLBeoCnF-2" target="45Ii6qkF4x4RbLBeoCnF-19" edge="1">
          <mxGeometry relative="1" as="geometry">
            <mxPoint x="168" y="773" as="sourcePoint" />
            <mxPoint x="188" y="833" as="targetPoint" />
          </mxGeometry>
        </mxCell>
        <mxCell id="45Ii6qkF4x4RbLBeoCnF-19" value="Selling" style="rhombus;whiteSpace=wrap;html=1;" parent="1" vertex="1">
          <mxGeometry x="188" y="822" width="80" height="80" as="geometry" />
        </mxCell>
        <mxCell id="45Ii6qkF4x4RbLBeoCnF-22" value="" style="edgeStyle=orthogonalEdgeStyle;rounded=0;orthogonalLoop=1;jettySize=auto;html=1;exitX=0.5;exitY=1;exitDx=0;exitDy=0;entryX=1;entryY=0.5;entryDx=0;entryDy=0;endArrow=none;endFill=0;" parent="1" source="45Ii6qkF4x4RbLBeoCnF-5" target="45Ii6qkF4x4RbLBeoCnF-21" edge="1">
          <mxGeometry relative="1" as="geometry">
            <mxPoint x="658" y="803" as="sourcePoint" />
            <mxPoint x="453" y="882" as="targetPoint" />
          </mxGeometry>
        </mxCell>
        <mxCell id="45Ii6qkF4x4RbLBeoCnF-21" value="Buying" style="rhombus;whiteSpace=wrap;html=1;" parent="1" vertex="1">
          <mxGeometry x="553" y="842" width="80" height="80" as="geometry" />
        </mxCell>
        <mxCell id="45Ii6qkF4x4RbLBeoCnF-24" value="" style="edgeStyle=orthogonalEdgeStyle;rounded=0;orthogonalLoop=1;jettySize=auto;html=1;exitX=0.5;exitY=1;exitDx=0;exitDy=0;endArrow=none;endFill=0;" parent="1" source="45Ii6qkF4x4RbLBeoCnF-6" edge="1">
          <mxGeometry relative="1" as="geometry">
            <mxPoint x="399" y="722" as="sourcePoint" />
            <mxPoint x="400" y="752" as="targetPoint" />
          </mxGeometry>
        </mxCell>
        <mxCell id="45Ii6qkF4x4RbLBeoCnF-198" style="edgeStyle=orthogonalEdgeStyle;rounded=0;orthogonalLoop=1;jettySize=auto;html=1;exitX=0.5;exitY=1;exitDx=0;exitDy=0;entryX=0.534;entryY=0.002;entryDx=0;entryDy=0;entryPerimeter=0;endArrow=none;endFill=0;" parent="1" source="45Ii6qkF4x4RbLBeoCnF-23" target="45Ii6qkF4x4RbLBeoCnF-9" edge="1">
          <mxGeometry relative="1" as="geometry" />
        </mxCell>
        <mxCell id="45Ii6qkF4x4RbLBeoCnF-23" value="Managing" style="rhombus;whiteSpace=wrap;html=1;" parent="1" vertex="1">
          <mxGeometry x="359" y="752" width="80" height="80" as="geometry" />
        </mxCell>
        <mxCell id="45Ii6qkF4x4RbLBeoCnF-26" value="" style="edgeStyle=orthogonalEdgeStyle;rounded=0;orthogonalLoop=1;jettySize=auto;html=1;exitX=0;exitY=0.25;exitDx=0;exitDy=0;endArrow=none;endFill=0;" parent="1" source="45Ii6qkF4x4RbLBeoCnF-7" target="45Ii6qkF4x4RbLBeoCnF-25" edge="1">
          <mxGeometry relative="1" as="geometry">
            <mxPoint x="555" y="441" as="sourcePoint" />
            <mxPoint x="645" y="371" as="targetPoint" />
          </mxGeometry>
        </mxCell>
        <mxCell id="45Ii6qkF4x4RbLBeoCnF-25" value="Selling" style="rhombus;whiteSpace=wrap;html=1;" parent="1" vertex="1">
          <mxGeometry x="221" y="569" width="59" height="60" as="geometry" />
        </mxCell>
        <mxCell id="45Ii6qkF4x4RbLBeoCnF-29" style="edgeStyle=orthogonalEdgeStyle;rounded=0;orthogonalLoop=1;jettySize=auto;html=1;exitX=0.5;exitY=1;exitDx=0;exitDy=0;entryX=0.125;entryY=0.001;entryDx=0;entryDy=0;entryPerimeter=0;endArrow=none;endFill=0;" parent="1" source="45Ii6qkF4x4RbLBeoCnF-27" edge="1">
          <mxGeometry relative="1" as="geometry">
            <mxPoint x="348" y="639.06" as="targetPoint" />
          </mxGeometry>
        </mxCell>
        <mxCell id="45Ii6qkF4x4RbLBeoCnF-27" value="" style="ellipse;whiteSpace=wrap;html=1;aspect=fixed;fillColor=#000000;" parent="1" vertex="1">
          <mxGeometry x="343" y="609" width="10" height="10" as="geometry" />
        </mxCell>
        <mxCell id="45Ii6qkF4x4RbLBeoCnF-30" style="edgeStyle=orthogonalEdgeStyle;rounded=0;orthogonalLoop=1;jettySize=auto;html=1;exitX=0.5;exitY=1;exitDx=0;exitDy=0;entryX=0.125;entryY=0.001;entryDx=0;entryDy=0;entryPerimeter=0;endArrow=none;endFill=0;" parent="1" source="45Ii6qkF4x4RbLBeoCnF-31" edge="1">
          <mxGeometry relative="1" as="geometry">
            <mxPoint x="370" y="639" as="targetPoint" />
          </mxGeometry>
        </mxCell>
        <mxCell id="45Ii6qkF4x4RbLBeoCnF-31" value="" style="ellipse;whiteSpace=wrap;html=1;aspect=fixed;" parent="1" vertex="1">
          <mxGeometry x="365" y="609" width="10" height="10" as="geometry" />
        </mxCell>
        <mxCell id="45Ii6qkF4x4RbLBeoCnF-32" value="Emp_ID" style="text;html=1;strokeColor=none;fillColor=none;align=center;verticalAlign=middle;whiteSpace=wrap;rounded=0;fontStyle=0" parent="1" vertex="1">
          <mxGeometry x="313" y="589" width="60" height="20" as="geometry" />
        </mxCell>
        <mxCell id="45Ii6qkF4x4RbLBeoCnF-33" value="Name" style="text;html=1;strokeColor=none;fillColor=none;align=center;verticalAlign=middle;whiteSpace=wrap;rounded=0;fontStyle=0" parent="1" vertex="1">
          <mxGeometry x="349" y="574" width="36" height="20" as="geometry" />
        </mxCell>
        <mxCell id="45Ii6qkF4x4RbLBeoCnF-36" style="edgeStyle=orthogonalEdgeStyle;rounded=0;orthogonalLoop=1;jettySize=auto;html=1;exitX=0.5;exitY=1;exitDx=0;exitDy=0;entryX=0.125;entryY=0.001;entryDx=0;entryDy=0;entryPerimeter=0;endArrow=none;endFill=0;" parent="1" source="45Ii6qkF4x4RbLBeoCnF-37" edge="1">
          <mxGeometry relative="1" as="geometry">
            <mxPoint x="410" y="639" as="targetPoint" />
          </mxGeometry>
        </mxCell>
        <mxCell id="45Ii6qkF4x4RbLBeoCnF-37" value="" style="ellipse;whiteSpace=wrap;html=1;aspect=fixed;" parent="1" vertex="1">
          <mxGeometry x="405" y="609" width="10" height="10" as="geometry" />
        </mxCell>
        <mxCell id="45Ii6qkF4x4RbLBeoCnF-38" value="Territory_ID" style="text;html=1;strokeColor=none;fillColor=none;align=center;verticalAlign=middle;whiteSpace=wrap;rounded=0;fontStyle=0" parent="1" vertex="1">
          <mxGeometry x="393" y="589" width="36" height="20" as="geometry" />
        </mxCell>
        <mxCell id="45Ii6qkF4x4RbLBeoCnF-39" style="edgeStyle=orthogonalEdgeStyle;rounded=0;orthogonalLoop=1;jettySize=auto;html=1;exitX=0.5;exitY=1;exitDx=0;exitDy=0;entryX=0.125;entryY=0.001;entryDx=0;entryDy=0;entryPerimeter=0;endArrow=none;endFill=0;" parent="1" source="45Ii6qkF4x4RbLBeoCnF-40" edge="1">
          <mxGeometry relative="1" as="geometry">
            <mxPoint x="450" y="639" as="targetPoint" />
          </mxGeometry>
        </mxCell>
        <mxCell id="45Ii6qkF4x4RbLBeoCnF-40" value="" style="ellipse;whiteSpace=wrap;html=1;aspect=fixed;" parent="1" vertex="1">
          <mxGeometry x="445" y="609" width="10" height="10" as="geometry" />
        </mxCell>
        <mxCell id="45Ii6qkF4x4RbLBeoCnF-41" value="DateBirth_ID" style="text;html=1;strokeColor=none;fillColor=none;align=center;verticalAlign=middle;whiteSpace=wrap;rounded=0;fontStyle=0" parent="1" vertex="1">
          <mxGeometry x="432" y="574" width="36" height="20" as="geometry" />
        </mxCell>
        <mxCell id="45Ii6qkF4x4RbLBeoCnF-45" style="edgeStyle=orthogonalEdgeStyle;rounded=0;orthogonalLoop=1;jettySize=auto;html=1;exitX=0.5;exitY=0;exitDx=0;exitDy=0;endArrow=none;endFill=0;" parent="1" source="45Ii6qkF4x4RbLBeoCnF-43" edge="1">
          <mxGeometry relative="1" as="geometry">
            <mxPoint x="377" y="342" as="targetPoint" />
          </mxGeometry>
        </mxCell>
        <mxCell id="45Ii6qkF4x4RbLBeoCnF-43" value="" style="ellipse;whiteSpace=wrap;html=1;aspect=fixed;fillColor=#000000;" parent="1" vertex="1">
          <mxGeometry x="372" y="360" width="10" height="10" as="geometry" />
        </mxCell>
        <mxCell id="45Ii6qkF4x4RbLBeoCnF-44" value="Date_ID" style="text;html=1;strokeColor=none;fillColor=none;align=center;verticalAlign=middle;whiteSpace=wrap;rounded=0;fontStyle=0" parent="1" vertex="1">
          <mxGeometry x="354" y="370" width="36" height="20" as="geometry" />
        </mxCell>
        <mxCell id="45Ii6qkF4x4RbLBeoCnF-50" style="edgeStyle=orthogonalEdgeStyle;rounded=0;orthogonalLoop=1;jettySize=auto;html=1;exitX=0.5;exitY=0;exitDx=0;exitDy=0;endArrow=none;endFill=0;" parent="1" source="45Ii6qkF4x4RbLBeoCnF-51" edge="1">
          <mxGeometry relative="1" as="geometry">
            <mxPoint x="427" y="342" as="targetPoint" />
          </mxGeometry>
        </mxCell>
        <mxCell id="45Ii6qkF4x4RbLBeoCnF-51" value="" style="ellipse;whiteSpace=wrap;html=1;aspect=fixed;fillColor=#FFFFFF;" parent="1" vertex="1">
          <mxGeometry x="422" y="360" width="10" height="10" as="geometry" />
        </mxCell>
        <mxCell id="45Ii6qkF4x4RbLBeoCnF-52" value="Date" style="text;html=1;strokeColor=none;fillColor=none;align=center;verticalAlign=middle;whiteSpace=wrap;rounded=0;fontStyle=0" parent="1" vertex="1">
          <mxGeometry x="409" y="370" width="36" height="20" as="geometry" />
        </mxCell>
        <mxCell id="45Ii6qkF4x4RbLBeoCnF-53" style="edgeStyle=orthogonalEdgeStyle;rounded=0;orthogonalLoop=1;jettySize=auto;html=1;exitX=0.5;exitY=0;exitDx=0;exitDy=0;endArrow=none;endFill=0;" parent="1" source="45Ii6qkF4x4RbLBeoCnF-54" edge="1">
          <mxGeometry relative="1" as="geometry">
            <mxPoint x="71" y="773" as="targetPoint" />
          </mxGeometry>
        </mxCell>
        <mxCell id="45Ii6qkF4x4RbLBeoCnF-54" value="" style="ellipse;whiteSpace=wrap;html=1;aspect=fixed;fillColor=#000000;" parent="1" vertex="1">
          <mxGeometry x="66" y="791" width="10" height="10" as="geometry" />
        </mxCell>
        <mxCell id="45Ii6qkF4x4RbLBeoCnF-55" value="Prod_ID" style="text;html=1;strokeColor=none;fillColor=none;align=center;verticalAlign=middle;whiteSpace=wrap;rounded=0;fontStyle=0" parent="1" vertex="1">
          <mxGeometry x="40" y="801" width="36" height="20" as="geometry" />
        </mxCell>
        <mxCell id="45Ii6qkF4x4RbLBeoCnF-56" style="edgeStyle=orthogonalEdgeStyle;rounded=0;orthogonalLoop=1;jettySize=auto;html=1;exitX=0.5;exitY=0;exitDx=0;exitDy=0;endArrow=none;endFill=0;" parent="1" source="45Ii6qkF4x4RbLBeoCnF-57" edge="1">
          <mxGeometry relative="1" as="geometry">
            <mxPoint x="99" y="773" as="targetPoint" />
          </mxGeometry>
        </mxCell>
        <mxCell id="45Ii6qkF4x4RbLBeoCnF-57" value="" style="ellipse;whiteSpace=wrap;html=1;aspect=fixed;fillColor=#FFFFFF;" parent="1" vertex="1">
          <mxGeometry x="94" y="791" width="10" height="10" as="geometry" />
        </mxCell>
        <mxCell id="45Ii6qkF4x4RbLBeoCnF-58" value="Name_P" style="text;html=1;strokeColor=none;fillColor=none;align=center;verticalAlign=middle;whiteSpace=wrap;rounded=0;fontStyle=0" parent="1" vertex="1">
          <mxGeometry x="81" y="820" width="36" height="20" as="geometry" />
        </mxCell>
        <mxCell id="45Ii6qkF4x4RbLBeoCnF-59" style="edgeStyle=orthogonalEdgeStyle;rounded=0;orthogonalLoop=1;jettySize=auto;html=1;exitX=0.5;exitY=0;exitDx=0;exitDy=0;endArrow=none;endFill=0;" parent="1" source="45Ii6qkF4x4RbLBeoCnF-60" edge="1">
          <mxGeometry relative="1" as="geometry">
            <mxPoint x="131" y="774" as="targetPoint" />
          </mxGeometry>
        </mxCell>
        <mxCell id="45Ii6qkF4x4RbLBeoCnF-60" value="" style="ellipse;whiteSpace=wrap;html=1;aspect=fixed;fillColor=#FFFFFF;" parent="1" vertex="1">
          <mxGeometry x="126" y="792" width="10" height="10" as="geometry" />
        </mxCell>
        <mxCell id="45Ii6qkF4x4RbLBeoCnF-61" value="Price_P" style="text;html=1;strokeColor=none;fillColor=none;align=center;verticalAlign=middle;whiteSpace=wrap;rounded=0;fontStyle=0" parent="1" vertex="1">
          <mxGeometry x="113" y="802" width="36" height="20" as="geometry" />
        </mxCell>
        <mxCell id="45Ii6qkF4x4RbLBeoCnF-71" style="edgeStyle=orthogonalEdgeStyle;rounded=0;orthogonalLoop=1;jettySize=auto;html=1;exitX=0.5;exitY=1;exitDx=0;exitDy=0;entryX=0.125;entryY=0.001;entryDx=0;entryDy=0;entryPerimeter=0;endArrow=none;endFill=0;" parent="1" source="45Ii6qkF4x4RbLBeoCnF-72" edge="1">
          <mxGeometry relative="1" as="geometry">
            <mxPoint x="609.5" y="743" as="targetPoint" />
          </mxGeometry>
        </mxCell>
        <mxCell id="45Ii6qkF4x4RbLBeoCnF-72" value="" style="ellipse;whiteSpace=wrap;html=1;aspect=fixed;fillColor=#000000;" parent="1" vertex="1">
          <mxGeometry x="604.5" y="712.94" width="10" height="10" as="geometry" />
        </mxCell>
        <mxCell id="45Ii6qkF4x4RbLBeoCnF-73" style="edgeStyle=orthogonalEdgeStyle;rounded=0;orthogonalLoop=1;jettySize=auto;html=1;exitX=0.5;exitY=1;exitDx=0;exitDy=0;entryX=0.125;entryY=0.001;entryDx=0;entryDy=0;entryPerimeter=0;endArrow=none;endFill=0;" parent="1" source="45Ii6qkF4x4RbLBeoCnF-74" edge="1">
          <mxGeometry relative="1" as="geometry">
            <mxPoint x="631.5" y="742.94" as="targetPoint" />
          </mxGeometry>
        </mxCell>
        <mxCell id="45Ii6qkF4x4RbLBeoCnF-74" value="" style="ellipse;whiteSpace=wrap;html=1;aspect=fixed;" parent="1" vertex="1">
          <mxGeometry x="626.5" y="712.94" width="10" height="10" as="geometry" />
        </mxCell>
        <mxCell id="45Ii6qkF4x4RbLBeoCnF-75" value="Customer_ID" style="text;html=1;strokeColor=none;fillColor=none;align=center;verticalAlign=middle;whiteSpace=wrap;rounded=0;fontStyle=0" parent="1" vertex="1">
          <mxGeometry x="554.5" y="692.94" width="60" height="20" as="geometry" />
        </mxCell>
        <mxCell id="45Ii6qkF4x4RbLBeoCnF-76" value="Name" style="text;html=1;strokeColor=none;fillColor=none;align=center;verticalAlign=middle;whiteSpace=wrap;rounded=0;fontStyle=0" parent="1" vertex="1">
          <mxGeometry x="610.5" y="677.94" width="36" height="20" as="geometry" />
        </mxCell>
        <mxCell id="45Ii6qkF4x4RbLBeoCnF-77" style="edgeStyle=orthogonalEdgeStyle;rounded=0;orthogonalLoop=1;jettySize=auto;html=1;exitX=0.5;exitY=1;exitDx=0;exitDy=0;entryX=0.125;entryY=0.001;entryDx=0;entryDy=0;entryPerimeter=0;endArrow=none;endFill=0;" parent="1" source="45Ii6qkF4x4RbLBeoCnF-78" edge="1">
          <mxGeometry relative="1" as="geometry">
            <mxPoint x="671.5" y="742.94" as="targetPoint" />
          </mxGeometry>
        </mxCell>
        <mxCell id="45Ii6qkF4x4RbLBeoCnF-78" value="" style="ellipse;whiteSpace=wrap;html=1;aspect=fixed;" parent="1" vertex="1">
          <mxGeometry x="666.5" y="712.94" width="10" height="10" as="geometry" />
        </mxCell>
        <mxCell id="45Ii6qkF4x4RbLBeoCnF-79" value="Territory_ID" style="text;html=1;strokeColor=none;fillColor=none;align=center;verticalAlign=middle;whiteSpace=wrap;rounded=0;fontStyle=0" parent="1" vertex="1">
          <mxGeometry x="654.5" y="692.94" width="36" height="20" as="geometry" />
        </mxCell>
        <mxCell id="45Ii6qkF4x4RbLBeoCnF-80" style="edgeStyle=orthogonalEdgeStyle;rounded=0;orthogonalLoop=1;jettySize=auto;html=1;exitX=0.5;exitY=1;exitDx=0;exitDy=0;entryX=0.125;entryY=0.001;entryDx=0;entryDy=0;entryPerimeter=0;endArrow=none;endFill=0;" parent="1" source="45Ii6qkF4x4RbLBeoCnF-81" edge="1">
          <mxGeometry relative="1" as="geometry">
            <mxPoint x="711.5" y="742.94" as="targetPoint" />
          </mxGeometry>
        </mxCell>
        <mxCell id="45Ii6qkF4x4RbLBeoCnF-81" value="" style="ellipse;whiteSpace=wrap;html=1;aspect=fixed;" parent="1" vertex="1">
          <mxGeometry x="706.5" y="712.94" width="10" height="10" as="geometry" />
        </mxCell>
        <mxCell id="45Ii6qkF4x4RbLBeoCnF-82" value="DateBirth_ID" style="text;html=1;strokeColor=none;fillColor=none;align=center;verticalAlign=middle;whiteSpace=wrap;rounded=0;fontStyle=0" parent="1" vertex="1">
          <mxGeometry x="693.5" y="677.94" width="36" height="20" as="geometry" />
        </mxCell>
        <mxCell id="45Ii6qkF4x4RbLBeoCnF-99" style="edgeStyle=orthogonalEdgeStyle;rounded=0;orthogonalLoop=1;jettySize=auto;html=1;exitX=0.5;exitY=0;exitDx=0;exitDy=0;endArrow=none;endFill=0;" parent="1" source="45Ii6qkF4x4RbLBeoCnF-100" edge="1">
          <mxGeometry relative="1" as="geometry">
            <mxPoint x="589" y="484" as="targetPoint" />
          </mxGeometry>
        </mxCell>
        <mxCell id="45Ii6qkF4x4RbLBeoCnF-100" value="" style="ellipse;whiteSpace=wrap;html=1;aspect=fixed;fillColor=#000000;" parent="1" vertex="1">
          <mxGeometry x="584" y="502" width="10" height="10" as="geometry" />
        </mxCell>
        <mxCell id="45Ii6qkF4x4RbLBeoCnF-101" value="Territory_ID" style="text;html=1;strokeColor=none;fillColor=none;align=center;verticalAlign=middle;whiteSpace=wrap;rounded=0;fontStyle=0" parent="1" vertex="1">
          <mxGeometry x="561" y="512" width="36" height="20" as="geometry" />
        </mxCell>
        <mxCell id="45Ii6qkF4x4RbLBeoCnF-102" style="edgeStyle=orthogonalEdgeStyle;rounded=0;orthogonalLoop=1;jettySize=auto;html=1;exitX=0.5;exitY=0;exitDx=0;exitDy=0;endArrow=none;endFill=0;" parent="1" source="45Ii6qkF4x4RbLBeoCnF-103" edge="1">
          <mxGeometry relative="1" as="geometry">
            <mxPoint x="618" y="484" as="targetPoint" />
          </mxGeometry>
        </mxCell>
        <mxCell id="45Ii6qkF4x4RbLBeoCnF-103" value="" style="ellipse;whiteSpace=wrap;html=1;aspect=fixed;fillColor=#FFFFFF;" parent="1" vertex="1">
          <mxGeometry x="613" y="502" width="10" height="10" as="geometry" />
        </mxCell>
        <mxCell id="45Ii6qkF4x4RbLBeoCnF-104" value="Continent" style="text;html=1;strokeColor=none;fillColor=none;align=center;verticalAlign=middle;whiteSpace=wrap;rounded=0;fontStyle=0" parent="1" vertex="1">
          <mxGeometry x="600" y="529" width="36" height="20" as="geometry" />
        </mxCell>
        <mxCell id="45Ii6qkF4x4RbLBeoCnF-105" style="edgeStyle=orthogonalEdgeStyle;rounded=0;orthogonalLoop=1;jettySize=auto;html=1;exitX=0.5;exitY=0;exitDx=0;exitDy=0;endArrow=none;endFill=0;" parent="1" source="45Ii6qkF4x4RbLBeoCnF-106" edge="1">
          <mxGeometry relative="1" as="geometry">
            <mxPoint x="647" y="484" as="targetPoint" />
          </mxGeometry>
        </mxCell>
        <mxCell id="45Ii6qkF4x4RbLBeoCnF-106" value="" style="ellipse;whiteSpace=wrap;html=1;aspect=fixed;fillColor=#FFFFFF;" parent="1" vertex="1">
          <mxGeometry x="642" y="502" width="10" height="10" as="geometry" />
        </mxCell>
        <mxCell id="45Ii6qkF4x4RbLBeoCnF-107" value="Country" style="text;html=1;strokeColor=none;fillColor=none;align=center;verticalAlign=middle;whiteSpace=wrap;rounded=0;fontStyle=0" parent="1" vertex="1">
          <mxGeometry x="626" y="512" width="36" height="20" as="geometry" />
        </mxCell>
        <mxCell id="45Ii6qkF4x4RbLBeoCnF-111" style="edgeStyle=orthogonalEdgeStyle;rounded=0;orthogonalLoop=1;jettySize=auto;html=1;exitX=0.5;exitY=0;exitDx=0;exitDy=0;endArrow=none;endFill=0;" parent="1" source="45Ii6qkF4x4RbLBeoCnF-112" edge="1">
          <mxGeometry relative="1" as="geometry">
            <mxPoint x="675" y="484" as="targetPoint" />
          </mxGeometry>
        </mxCell>
        <mxCell id="45Ii6qkF4x4RbLBeoCnF-112" value="" style="ellipse;whiteSpace=wrap;html=1;aspect=fixed;fillColor=#FFFFFF;" parent="1" vertex="1">
          <mxGeometry x="670" y="502" width="10" height="10" as="geometry" />
        </mxCell>
        <mxCell id="45Ii6qkF4x4RbLBeoCnF-113" value="Provices&lt;br&gt;/States" style="text;html=1;strokeColor=none;fillColor=none;align=center;verticalAlign=middle;whiteSpace=wrap;rounded=0;fontStyle=0" parent="1" vertex="1">
          <mxGeometry x="673" y="517" width="36" height="20" as="geometry" />
        </mxCell>
        <mxCell id="45Ii6qkF4x4RbLBeoCnF-145" style="edgeStyle=orthogonalEdgeStyle;rounded=0;orthogonalLoop=1;jettySize=auto;html=1;exitX=0;exitY=0.25;exitDx=0;exitDy=0;entryX=1;entryY=0.5;entryDx=0;entryDy=0;endArrow=none;endFill=0;" parent="1" target="45Ii6qkF4x4RbLBeoCnF-144" edge="1">
          <mxGeometry relative="1" as="geometry">
            <mxPoint x="580" y="173" as="sourcePoint" />
          </mxGeometry>
        </mxCell>
        <mxCell id="45Ii6qkF4x4RbLBeoCnF-114" value="ADRESS" style="rounded=0;whiteSpace=wrap;html=1;" parent="1" vertex="1">
          <mxGeometry x="580" y="166" width="120" height="60" as="geometry" />
        </mxCell>
        <mxCell id="45Ii6qkF4x4RbLBeoCnF-116" style="edgeStyle=orthogonalEdgeStyle;rounded=0;orthogonalLoop=1;jettySize=auto;html=1;exitX=0.5;exitY=0;exitDx=0;exitDy=0;endArrow=none;endFill=0;" parent="1" source="45Ii6qkF4x4RbLBeoCnF-117" edge="1">
          <mxGeometry relative="1" as="geometry">
            <mxPoint x="585" y="226" as="targetPoint" />
          </mxGeometry>
        </mxCell>
        <mxCell id="45Ii6qkF4x4RbLBeoCnF-117" value="" style="ellipse;whiteSpace=wrap;html=1;aspect=fixed;fillColor=#000000;" parent="1" vertex="1">
          <mxGeometry x="580" y="244" width="10" height="10" as="geometry" />
        </mxCell>
        <mxCell id="45Ii6qkF4x4RbLBeoCnF-118" value="Territory_ID" style="text;html=1;strokeColor=none;fillColor=none;align=center;verticalAlign=middle;whiteSpace=wrap;rounded=0;fontStyle=0" parent="1" vertex="1">
          <mxGeometry x="483" y="163" width="36" height="20" as="geometry" />
        </mxCell>
        <mxCell id="45Ii6qkF4x4RbLBeoCnF-119" style="edgeStyle=orthogonalEdgeStyle;rounded=0;orthogonalLoop=1;jettySize=auto;html=1;exitX=0.5;exitY=0;exitDx=0;exitDy=0;endArrow=none;endFill=0;" parent="1" source="45Ii6qkF4x4RbLBeoCnF-120" edge="1">
          <mxGeometry relative="1" as="geometry">
            <mxPoint x="614" y="226" as="targetPoint" />
          </mxGeometry>
        </mxCell>
        <mxCell id="45Ii6qkF4x4RbLBeoCnF-120" value="" style="ellipse;whiteSpace=wrap;html=1;aspect=fixed;fillColor=#FFFFFF;" parent="1" vertex="1">
          <mxGeometry x="609" y="244" width="10" height="10" as="geometry" />
        </mxCell>
        <mxCell id="45Ii6qkF4x4RbLBeoCnF-122" style="edgeStyle=orthogonalEdgeStyle;rounded=0;orthogonalLoop=1;jettySize=auto;html=1;exitX=0.5;exitY=0;exitDx=0;exitDy=0;endArrow=none;endFill=0;" parent="1" source="45Ii6qkF4x4RbLBeoCnF-123" edge="1">
          <mxGeometry relative="1" as="geometry">
            <mxPoint x="643" y="226" as="targetPoint" />
          </mxGeometry>
        </mxCell>
        <mxCell id="45Ii6qkF4x4RbLBeoCnF-123" value="" style="ellipse;whiteSpace=wrap;html=1;aspect=fixed;fillColor=#FFFFFF;" parent="1" vertex="1">
          <mxGeometry x="638" y="244" width="10" height="10" as="geometry" />
        </mxCell>
        <mxCell id="45Ii6qkF4x4RbLBeoCnF-124" value="Postal&lt;br&gt;Code" style="text;html=1;strokeColor=none;fillColor=none;align=center;verticalAlign=middle;whiteSpace=wrap;rounded=0;fontStyle=0" parent="1" vertex="1">
          <mxGeometry x="622" y="258" width="36" height="20" as="geometry" />
        </mxCell>
        <mxCell id="45Ii6qkF4x4RbLBeoCnF-125" style="edgeStyle=orthogonalEdgeStyle;rounded=0;orthogonalLoop=1;jettySize=auto;html=1;exitX=0.5;exitY=0;exitDx=0;exitDy=0;endArrow=none;endFill=0;" parent="1" source="45Ii6qkF4x4RbLBeoCnF-126" edge="1">
          <mxGeometry relative="1" as="geometry">
            <mxPoint x="671" y="226" as="targetPoint" />
          </mxGeometry>
        </mxCell>
        <mxCell id="45Ii6qkF4x4RbLBeoCnF-126" value="" style="ellipse;whiteSpace=wrap;html=1;aspect=fixed;fillColor=#FFFFFF;" parent="1" vertex="1">
          <mxGeometry x="666" y="244" width="10" height="10" as="geometry" />
        </mxCell>
        <mxCell id="45Ii6qkF4x4RbLBeoCnF-127" value="Type&lt;br&gt;Street" style="text;html=1;strokeColor=none;fillColor=none;align=center;verticalAlign=middle;whiteSpace=wrap;rounded=0;fontStyle=0" parent="1" vertex="1">
          <mxGeometry x="654" y="282" width="36" height="20" as="geometry" />
        </mxCell>
        <mxCell id="45Ii6qkF4x4RbLBeoCnF-128" value="Address_ID" style="text;html=1;strokeColor=none;fillColor=none;align=center;verticalAlign=middle;whiteSpace=wrap;rounded=0;fontStyle=0" parent="1" vertex="1">
          <mxGeometry x="562" y="254" width="36" height="20" as="geometry" />
        </mxCell>
        <mxCell id="45Ii6qkF4x4RbLBeoCnF-134" style="edgeStyle=orthogonalEdgeStyle;rounded=0;orthogonalLoop=1;jettySize=auto;html=1;exitX=0.5;exitY=0;exitDx=0;exitDy=0;endArrow=none;endFill=0;" parent="1" source="45Ii6qkF4x4RbLBeoCnF-135" edge="1">
          <mxGeometry relative="1" as="geometry">
            <mxPoint x="697" y="226" as="targetPoint" />
          </mxGeometry>
        </mxCell>
        <mxCell id="45Ii6qkF4x4RbLBeoCnF-135" value="" style="ellipse;whiteSpace=wrap;html=1;aspect=fixed;fillColor=#FFFFFF;" parent="1" vertex="1">
          <mxGeometry x="692" y="244" width="10" height="10" as="geometry" />
        </mxCell>
        <mxCell id="45Ii6qkF4x4RbLBeoCnF-136" value="Name&lt;br&gt;street" style="text;html=1;strokeColor=none;fillColor=none;align=center;verticalAlign=middle;whiteSpace=wrap;rounded=0;fontStyle=0" parent="1" vertex="1">
          <mxGeometry x="680" y="256" width="36" height="20" as="geometry" />
        </mxCell>
        <mxCell id="45Ii6qkF4x4RbLBeoCnF-137" value="City" style="text;html=1;strokeColor=none;fillColor=none;align=center;verticalAlign=middle;whiteSpace=wrap;rounded=0;fontStyle=0" parent="1" vertex="1">
          <mxGeometry x="596" y="278" width="36" height="20" as="geometry" />
        </mxCell>
        <mxCell id="45Ii6qkF4x4RbLBeoCnF-141" style="edgeStyle=orthogonalEdgeStyle;rounded=0;orthogonalLoop=1;jettySize=auto;html=1;exitX=1;exitY=0.5;exitDx=0;exitDy=0;endArrow=none;endFill=0;entryX=0;entryY=0.75;entryDx=0;entryDy=0;" parent="1" source="45Ii6qkF4x4RbLBeoCnF-142" edge="1">
          <mxGeometry relative="1" as="geometry">
            <mxPoint x="580" y="190" as="targetPoint" />
          </mxGeometry>
        </mxCell>
        <mxCell id="45Ii6qkF4x4RbLBeoCnF-142" value="" style="ellipse;whiteSpace=wrap;html=1;aspect=fixed;fillColor=#FFFFFF;" parent="1" vertex="1">
          <mxGeometry x="538.5" y="185" width="10" height="10" as="geometry" />
        </mxCell>
        <mxCell id="45Ii6qkF4x4RbLBeoCnF-143" value="House&lt;br&gt;Nr" style="text;html=1;strokeColor=none;fillColor=none;align=center;verticalAlign=middle;whiteSpace=wrap;rounded=0;fontStyle=0" parent="1" vertex="1">
          <mxGeometry x="489.5" y="185" width="36" height="20" as="geometry" />
        </mxCell>
        <mxCell id="45Ii6qkF4x4RbLBeoCnF-144" value="" style="ellipse;whiteSpace=wrap;html=1;aspect=fixed;fillColor=#FFFFFF;" parent="1" vertex="1">
          <mxGeometry x="538.5" y="168" width="10" height="10" as="geometry" />
        </mxCell>
        <mxCell id="45Ii6qkF4x4RbLBeoCnF-146" style="edgeStyle=orthogonalEdgeStyle;rounded=0;orthogonalLoop=1;jettySize=auto;html=1;exitX=0.5;exitY=0;exitDx=0;exitDy=0;endArrow=none;endFill=0;" parent="1" source="45Ii6qkF4x4RbLBeoCnF-147" edge="1">
          <mxGeometry relative="1" as="geometry">
            <mxPoint x="339" y="912" as="targetPoint" />
          </mxGeometry>
        </mxCell>
        <mxCell id="45Ii6qkF4x4RbLBeoCnF-147" value="" style="ellipse;whiteSpace=wrap;html=1;aspect=fixed;fillColor=#FFFFFF;" parent="1" vertex="1">
          <mxGeometry x="334" y="930" width="10" height="10" as="geometry" />
        </mxCell>
        <mxCell id="45Ii6qkF4x4RbLBeoCnF-148" value="Nr&lt;br&gt;Ordine" style="text;html=1;strokeColor=none;fillColor=none;align=center;verticalAlign=middle;whiteSpace=wrap;rounded=0;fontStyle=0" parent="1" vertex="1">
          <mxGeometry x="314" y="941" width="36" height="20" as="geometry" />
        </mxCell>
        <mxCell id="45Ii6qkF4x4RbLBeoCnF-149" style="edgeStyle=orthogonalEdgeStyle;rounded=0;orthogonalLoop=1;jettySize=auto;html=1;exitX=0.5;exitY=0;exitDx=0;exitDy=0;endArrow=none;endFill=0;" parent="1" source="45Ii6qkF4x4RbLBeoCnF-150" edge="1">
          <mxGeometry relative="1" as="geometry">
            <mxPoint x="368" y="912" as="targetPoint" />
          </mxGeometry>
        </mxCell>
        <mxCell id="45Ii6qkF4x4RbLBeoCnF-150" value="" style="ellipse;whiteSpace=wrap;html=1;aspect=fixed;fillColor=#FFFFFF;" parent="1" vertex="1">
          <mxGeometry x="363" y="930" width="10" height="10" as="geometry" />
        </mxCell>
        <mxCell id="45Ii6qkF4x4RbLBeoCnF-151" value="Prod_ID" style="text;html=1;strokeColor=none;fillColor=none;align=center;verticalAlign=middle;whiteSpace=wrap;rounded=0;fontStyle=0" parent="1" vertex="1">
          <mxGeometry x="350" y="957" width="36" height="20" as="geometry" />
        </mxCell>
        <mxCell id="45Ii6qkF4x4RbLBeoCnF-152" style="edgeStyle=orthogonalEdgeStyle;rounded=0;orthogonalLoop=1;jettySize=auto;html=1;exitX=0.5;exitY=0;exitDx=0;exitDy=0;endArrow=none;endFill=0;" parent="1" source="45Ii6qkF4x4RbLBeoCnF-153" edge="1">
          <mxGeometry relative="1" as="geometry">
            <mxPoint x="397" y="912" as="targetPoint" />
          </mxGeometry>
        </mxCell>
        <mxCell id="45Ii6qkF4x4RbLBeoCnF-153" value="" style="ellipse;whiteSpace=wrap;html=1;aspect=fixed;fillColor=#FFFFFF;" parent="1" vertex="1">
          <mxGeometry x="392" y="930" width="10" height="10" as="geometry" />
        </mxCell>
        <mxCell id="45Ii6qkF4x4RbLBeoCnF-154" value="Quantity" style="text;html=1;strokeColor=none;fillColor=none;align=center;verticalAlign=middle;whiteSpace=wrap;rounded=0;fontStyle=0" parent="1" vertex="1">
          <mxGeometry x="376" y="940" width="36" height="20" as="geometry" />
        </mxCell>
        <mxCell id="45Ii6qkF4x4RbLBeoCnF-155" style="edgeStyle=orthogonalEdgeStyle;rounded=0;orthogonalLoop=1;jettySize=auto;html=1;exitX=0.5;exitY=0;exitDx=0;exitDy=0;endArrow=none;endFill=0;" parent="1" source="45Ii6qkF4x4RbLBeoCnF-156" edge="1">
          <mxGeometry relative="1" as="geometry">
            <mxPoint x="425" y="912" as="targetPoint" />
          </mxGeometry>
        </mxCell>
        <mxCell id="45Ii6qkF4x4RbLBeoCnF-156" value="" style="ellipse;whiteSpace=wrap;html=1;aspect=fixed;fillColor=#FFFFFF;" parent="1" vertex="1">
          <mxGeometry x="420" y="930" width="10" height="10" as="geometry" />
        </mxCell>
        <mxCell id="45Ii6qkF4x4RbLBeoCnF-157" value="Tot&lt;br&gt;Cost" style="text;html=1;strokeColor=none;fillColor=none;align=center;verticalAlign=middle;whiteSpace=wrap;rounded=0;fontStyle=0" parent="1" vertex="1">
          <mxGeometry x="406" y="958" width="36" height="20" as="geometry" />
        </mxCell>
        <mxCell id="45Ii6qkF4x4RbLBeoCnF-158" style="edgeStyle=orthogonalEdgeStyle;rounded=0;orthogonalLoop=1;jettySize=auto;html=1;exitX=0.5;exitY=0;exitDx=0;exitDy=0;endArrow=none;endFill=0;" parent="1" source="45Ii6qkF4x4RbLBeoCnF-159" edge="1">
          <mxGeometry relative="1" as="geometry">
            <mxPoint x="450" y="912" as="targetPoint" />
          </mxGeometry>
        </mxCell>
        <mxCell id="45Ii6qkF4x4RbLBeoCnF-159" value="" style="ellipse;whiteSpace=wrap;html=1;aspect=fixed;fillColor=#FFFFFF;" parent="1" vertex="1">
          <mxGeometry x="445" y="930" width="10" height="10" as="geometry" />
        </mxCell>
        <mxCell id="45Ii6qkF4x4RbLBeoCnF-160" value="Cust_ID" style="text;html=1;strokeColor=none;fillColor=none;align=center;verticalAlign=middle;whiteSpace=wrap;rounded=0;fontStyle=0" parent="1" vertex="1">
          <mxGeometry x="429" y="940" width="36" height="20" as="geometry" />
        </mxCell>
        <mxCell id="45Ii6qkF4x4RbLBeoCnF-168" value="" style="edgeStyle=orthogonalEdgeStyle;rounded=0;orthogonalLoop=1;jettySize=auto;html=1;exitX=1;exitY=0.5;exitDx=0;exitDy=0;entryX=0.75;entryY=0;entryDx=0;entryDy=0;endArrow=none;endFill=0;" parent="1" source="AbspemG0DcN9fMY0QWew-2" target="45Ii6qkF4x4RbLBeoCnF-2" edge="1">
          <mxGeometry relative="1" as="geometry">
            <mxPoint x="147" y="463" as="sourcePoint" />
            <mxPoint x="179" y="662" as="targetPoint" />
            <Array as="points">
              <mxPoint x="200" y="557" />
              <mxPoint x="200" y="662" />
              <mxPoint x="154" y="662" />
            </Array>
          </mxGeometry>
        </mxCell>
        <mxCell id="45Ii6qkF4x4RbLBeoCnF-173" value="" style="edgeStyle=orthogonalEdgeStyle;rounded=0;orthogonalLoop=1;jettySize=auto;html=1;exitX=0;exitY=0.5;exitDx=0;exitDy=0;entryX=0.5;entryY=1;entryDx=0;entryDy=0;endArrow=none;endFill=0;" parent="1" source="45Ii6qkF4x4RbLBeoCnF-6" target="45Ii6qkF4x4RbLBeoCnF-172" edge="1">
          <mxGeometry relative="1" as="geometry">
            <mxPoint x="428" y="669" as="sourcePoint" />
            <mxPoint x="450.5" y="713" as="targetPoint" />
          </mxGeometry>
        </mxCell>
        <mxCell id="45Ii6qkF4x4RbLBeoCnF-172" value="Born" style="rhombus;whiteSpace=wrap;html=1;" parent="1" vertex="1">
          <mxGeometry x="259" y="426" width="59" height="60" as="geometry" />
        </mxCell>
        <mxCell id="45Ii6qkF4x4RbLBeoCnF-175" value="" style="edgeStyle=orthogonalEdgeStyle;rounded=0;orthogonalLoop=1;jettySize=auto;html=1;exitX=1;exitY=0.25;exitDx=0;exitDy=0;entryX=0.5;entryY=0;entryDx=0;entryDy=0;endArrow=none;endFill=0;" parent="1" source="45Ii6qkF4x4RbLBeoCnF-114" target="45Ii6qkF4x4RbLBeoCnF-174" edge="1">
          <mxGeometry relative="1" as="geometry">
            <mxPoint x="697" y="454" as="sourcePoint" />
            <mxPoint x="743" y="274" as="targetPoint" />
          </mxGeometry>
        </mxCell>
        <mxCell id="45Ii6qkF4x4RbLBeoCnF-174" value="Living" style="rhombus;whiteSpace=wrap;html=1;" parent="1" vertex="1">
          <mxGeometry x="741.5" y="484" width="59" height="60" as="geometry" />
        </mxCell>
        <mxCell id="45Ii6qkF4x4RbLBeoCnF-179" value="" style="edgeStyle=orthogonalEdgeStyle;rounded=0;orthogonalLoop=1;jettySize=auto;html=1;exitX=0.75;exitY=0;exitDx=0;exitDy=0;entryX=0;entryY=0.5;entryDx=0;entryDy=0;endArrow=none;endFill=0;" parent="1" source="45Ii6qkF4x4RbLBeoCnF-8" target="45Ii6qkF4x4RbLBeoCnF-178" edge="1">
          <mxGeometry relative="1" as="geometry">
            <mxPoint x="697" y="359" as="sourcePoint" />
            <mxPoint x="722" y="528" as="targetPoint" />
          </mxGeometry>
        </mxCell>
        <mxCell id="45Ii6qkF4x4RbLBeoCnF-178" value="Living" style="rhombus;whiteSpace=wrap;html=1;" parent="1" vertex="1">
          <mxGeometry x="705" y="320" width="59" height="60" as="geometry" />
        </mxCell>
        <mxCell id="45Ii6qkF4x4RbLBeoCnF-184" value="" style="edgeStyle=orthogonalEdgeStyle;rounded=0;orthogonalLoop=1;jettySize=auto;html=1;exitX=0;exitY=0.75;exitDx=0;exitDy=0;entryX=0.5;entryY=0;entryDx=0;entryDy=0;endArrow=none;endFill=0;" parent="1" source="45Ii6qkF4x4RbLBeoCnF-114" target="45Ii6qkF4x4RbLBeoCnF-182" edge="1">
          <mxGeometry relative="1" as="geometry">
            <mxPoint x="577" y="439" as="sourcePoint" />
            <mxPoint x="500.5000000000002" y="573" as="targetPoint" />
          </mxGeometry>
        </mxCell>
        <mxCell id="45Ii6qkF4x4RbLBeoCnF-182" value="Living" style="rhombus;whiteSpace=wrap;html=1;" parent="1" vertex="1">
          <mxGeometry x="515" y="527" width="59" height="60" as="geometry" />
        </mxCell>
        <mxCell id="45Ii6qkF4x4RbLBeoCnF-188" value="(0,N)" style="text;html=1;strokeColor=none;fillColor=none;align=center;verticalAlign=middle;whiteSpace=wrap;rounded=0;" parent="1" vertex="1">
          <mxGeometry x="405" y="713" width="36" height="30" as="geometry" />
        </mxCell>
        <mxCell id="45Ii6qkF4x4RbLBeoCnF-189" value="(1, 1)" style="text;html=1;strokeColor=none;fillColor=none;align=center;verticalAlign=middle;whiteSpace=wrap;rounded=0;" parent="1" vertex="1">
          <mxGeometry x="412" y="820" width="36" height="30" as="geometry" />
        </mxCell>
        <mxCell id="45Ii6qkF4x4RbLBeoCnF-190" value="(0,N)" style="text;html=1;strokeColor=none;fillColor=none;align=center;verticalAlign=middle;whiteSpace=wrap;rounded=0;" parent="1" vertex="1">
          <mxGeometry x="188" y="722.94" width="36" height="30" as="geometry" />
        </mxCell>
        <mxCell id="45Ii6qkF4x4RbLBeoCnF-192" value="(1, 1)" style="text;html=1;strokeColor=none;fillColor=none;align=center;verticalAlign=middle;whiteSpace=wrap;rounded=0;" parent="1" vertex="1">
          <mxGeometry x="270.5" y="836" width="36" height="30" as="geometry" />
        </mxCell>
        <mxCell id="45Ii6qkF4x4RbLBeoCnF-194" style="edgeStyle=orthogonalEdgeStyle;rounded=0;orthogonalLoop=1;jettySize=auto;html=1;exitX=1;exitY=0.5;exitDx=0;exitDy=0;entryX=0.001;entryY=0.943;entryDx=0;entryDy=0;entryPerimeter=0;endArrow=none;endFill=0;" parent="1" source="45Ii6qkF4x4RbLBeoCnF-193" target="45Ii6qkF4x4RbLBeoCnF-9" edge="1">
          <mxGeometry relative="1" as="geometry" />
        </mxCell>
        <mxCell id="45Ii6qkF4x4RbLBeoCnF-193" value="" style="ellipse;whiteSpace=wrap;html=1;aspect=fixed;fillColor=#000000;" parent="1" vertex="1">
          <mxGeometry x="304" y="904" width="10" height="10" as="geometry" />
        </mxCell>
        <mxCell id="45Ii6qkF4x4RbLBeoCnF-195" value="ID" style="text;html=1;strokeColor=none;fillColor=none;align=center;verticalAlign=middle;whiteSpace=wrap;rounded=0;fontStyle=0" parent="1" vertex="1">
          <mxGeometry x="270.5" y="920" width="36" height="20" as="geometry" />
        </mxCell>
        <mxCell id="45Ii6qkF4x4RbLBeoCnF-196" value="(1, N)" style="text;html=1;strokeColor=none;fillColor=none;align=center;verticalAlign=middle;whiteSpace=wrap;rounded=0;" parent="1" vertex="1">
          <mxGeometry x="664" y="815" width="36" height="30" as="geometry" />
        </mxCell>
        <mxCell id="45Ii6qkF4x4RbLBeoCnF-197" value="(1, 1)" style="text;html=1;strokeColor=none;fillColor=none;align=center;verticalAlign=middle;whiteSpace=wrap;rounded=0;" parent="1" vertex="1">
          <mxGeometry x="505.5" y="882" width="36" height="30" as="geometry" />
        </mxCell>
        <mxCell id="45Ii6qkF4x4RbLBeoCnF-199" value="(0,N)" style="text;html=1;strokeColor=none;fillColor=none;align=center;verticalAlign=middle;whiteSpace=wrap;rounded=0;" parent="1" vertex="1">
          <mxGeometry x="741.5" y="157.00000000000006" width="36" height="30" as="geometry" />
        </mxCell>
        <mxCell id="45Ii6qkF4x4RbLBeoCnF-200" value="(1, 1)" style="text;html=1;strokeColor=none;fillColor=none;align=center;verticalAlign=middle;whiteSpace=wrap;rounded=0;" parent="1" vertex="1">
          <mxGeometry x="729.5" y="752" width="36" height="30" as="geometry" />
        </mxCell>
        <mxCell id="45Ii6qkF4x4RbLBeoCnF-201" value="(1, 1)" style="text;html=1;strokeColor=none;fillColor=none;align=center;verticalAlign=middle;whiteSpace=wrap;rounded=0;" parent="1" vertex="1">
          <mxGeometry x="463" y="628" width="36" height="30" as="geometry" />
        </mxCell>
        <mxCell id="45Ii6qkF4x4RbLBeoCnF-202" value="(0,N)" style="text;html=1;strokeColor=none;fillColor=none;align=center;verticalAlign=middle;whiteSpace=wrap;rounded=0;" parent="1" vertex="1">
          <mxGeometry x="510.5" y="216.00000000000006" width="36" height="30" as="geometry" />
        </mxCell>
        <mxCell id="45Ii6qkF4x4RbLBeoCnF-203" value="(1, N)" style="text;html=1;strokeColor=none;fillColor=none;align=center;verticalAlign=middle;whiteSpace=wrap;rounded=0;" parent="1" vertex="1">
          <mxGeometry x="626" y="387" width="36" height="30" as="geometry" />
        </mxCell>
        <mxCell id="45Ii6qkF4x4RbLBeoCnF-204" value="(1, 1)" style="text;html=1;strokeColor=none;fillColor=none;align=center;verticalAlign=middle;whiteSpace=wrap;rounded=0;" parent="1" vertex="1">
          <mxGeometry x="703" y="204" width="36" height="30" as="geometry" />
        </mxCell>
        <mxCell id="45Ii6qkF4x4RbLBeoCnF-205" value="(1, 1)" style="text;html=1;strokeColor=none;fillColor=none;align=center;verticalAlign=middle;whiteSpace=wrap;rounded=0;" parent="1" vertex="1">
          <mxGeometry x="155" y="680.94" width="36" height="30" as="geometry" />
        </mxCell>
        <mxCell id="45Ii6qkF4x4RbLBeoCnF-207" value="(0, N)" style="text;html=1;strokeColor=none;fillColor=none;align=center;verticalAlign=middle;whiteSpace=wrap;rounded=0;" parent="1" vertex="1">
          <mxGeometry x="140" y="558" width="36" height="30" as="geometry" />
        </mxCell>
        <mxCell id="45Ii6qkF4x4RbLBeoCnF-210" value="(1, 1)" style="text;html=1;strokeColor=none;fillColor=none;align=center;verticalAlign=middle;whiteSpace=wrap;rounded=0;" parent="1" vertex="1">
          <mxGeometry x="296" y="665" width="36" height="30" as="geometry" />
        </mxCell>
        <mxCell id="45Ii6qkF4x4RbLBeoCnF-211" value="(0,N)" style="text;html=1;strokeColor=none;fillColor=none;align=center;verticalAlign=middle;whiteSpace=wrap;rounded=0;" parent="1" vertex="1">
          <mxGeometry x="296" y="329.00000000000006" width="36" height="30" as="geometry" />
        </mxCell>
        <mxCell id="45Ii6qkF4x4RbLBeoCnF-212" value="(0,N)" style="text;html=1;strokeColor=none;fillColor=none;align=center;verticalAlign=middle;whiteSpace=wrap;rounded=0;" parent="1" vertex="1">
          <mxGeometry x="277" y="271.00000000000006" width="36" height="30" as="geometry" />
        </mxCell>
        <mxCell id="45Ii6qkF4x4RbLBeoCnF-213" value="(1, 1)" style="text;html=1;strokeColor=none;fillColor=none;align=center;verticalAlign=middle;whiteSpace=wrap;rounded=0;" parent="1" vertex="1">
          <mxGeometry x="277" y="786" width="36" height="30" as="geometry" />
        </mxCell>
        <mxCell id="45Ii6qkF4x4RbLBeoCnF-214" style="edgeStyle=orthogonalEdgeStyle;rounded=0;orthogonalLoop=1;jettySize=auto;html=1;exitX=1;exitY=0.5;exitDx=0;exitDy=0;entryX=0.001;entryY=0.943;entryDx=0;entryDy=0;entryPerimeter=0;endArrow=none;endFill=0;" parent="1" source="45Ii6qkF4x4RbLBeoCnF-215" edge="1">
          <mxGeometry relative="1" as="geometry">
            <mxPoint x="335" y="889" as="targetPoint" />
          </mxGeometry>
        </mxCell>
        <mxCell id="45Ii6qkF4x4RbLBeoCnF-215" value="" style="ellipse;whiteSpace=wrap;html=1;aspect=fixed;fillColor=#FFFFFF;fontColor=#FFFFFF;" parent="1" vertex="1">
          <mxGeometry x="304" y="884" width="10" height="10" as="geometry" />
        </mxCell>
        <mxCell id="45Ii6qkF4x4RbLBeoCnF-216" value="Order_date" style="text;html=1;strokeColor=none;fillColor=none;align=center;verticalAlign=middle;whiteSpace=wrap;rounded=0;fontStyle=0" parent="1" vertex="1">
          <mxGeometry x="258.5" y="886" width="36" height="20" as="geometry" />
        </mxCell>
        <mxCell id="45Ii6qkF4x4RbLBeoCnF-217" value="Seller_ID" style="text;html=1;strokeColor=none;fillColor=none;align=center;verticalAlign=middle;whiteSpace=wrap;rounded=0;fontStyle=0" parent="1" vertex="1">
          <mxGeometry x="455" y="912" width="60" height="20" as="geometry" />
        </mxCell>
        <mxCell id="45Ii6qkF4x4RbLBeoCnF-218" style="edgeStyle=orthogonalEdgeStyle;rounded=0;orthogonalLoop=1;jettySize=auto;html=1;exitX=1;exitY=0.5;exitDx=0;exitDy=0;entryX=0;entryY=0.5;entryDx=0;entryDy=0;endArrow=none;endFill=0;" parent="1" target="45Ii6qkF4x4RbLBeoCnF-219" edge="1">
          <mxGeometry relative="1" as="geometry">
            <mxPoint x="455" y="905" as="sourcePoint" />
          </mxGeometry>
        </mxCell>
        <mxCell id="45Ii6qkF4x4RbLBeoCnF-219" value="" style="ellipse;whiteSpace=wrap;html=1;aspect=fixed;fillColor=#FFFFFF;" parent="1" vertex="1">
          <mxGeometry x="472" y="900" width="10" height="10" as="geometry" />
        </mxCell>
        <mxCell id="45Ii6qkF4x4RbLBeoCnF-223" value="" style="edgeStyle=orthogonalEdgeStyle;rounded=0;orthogonalLoop=1;jettySize=auto;html=1;exitX=1;exitY=0.75;exitDx=0;exitDy=0;endArrow=none;endFill=0;" parent="1" source="45Ii6qkF4x4RbLBeoCnF-7" target="45Ii6qkF4x4RbLBeoCnF-222" edge="1">
          <mxGeometry relative="1" as="geometry">
            <mxPoint x="510" y="650" as="targetPoint" />
            <mxPoint x="465" y="327" as="sourcePoint" />
          </mxGeometry>
        </mxCell>
        <mxCell id="45Ii6qkF4x4RbLBeoCnF-222" value="Born" style="rhombus;whiteSpace=wrap;html=1;" parent="1" vertex="1">
          <mxGeometry x="481.5" y="352" width="59" height="60" as="geometry" />
        </mxCell>
        <mxCell id="45Ii6qkF4x4RbLBeoCnF-224" value="(0,N)" style="text;html=1;strokeColor=none;fillColor=none;align=center;verticalAlign=middle;whiteSpace=wrap;rounded=0;" parent="1" vertex="1">
          <mxGeometry x="472" y="290.00000000000006" width="36" height="30" as="geometry" />
        </mxCell>
        <mxCell id="45Ii6qkF4x4RbLBeoCnF-225" value="(1, 1)" style="text;html=1;strokeColor=none;fillColor=none;align=center;verticalAlign=middle;whiteSpace=wrap;rounded=0;" parent="1" vertex="1">
          <mxGeometry x="526.5" y="722.94" width="36" height="30" as="geometry" />
        </mxCell>
        <mxCell id="hqcHhx7oB-6uk-nyvYdf-1" style="edgeStyle=orthogonalEdgeStyle;rounded=0;orthogonalLoop=1;jettySize=auto;html=1;exitX=0.5;exitY=0;exitDx=0;exitDy=0;endArrow=none;endFill=0;" parent="1" source="hqcHhx7oB-6uk-nyvYdf-2" edge="1">
          <mxGeometry relative="1" as="geometry">
            <mxPoint x="164" y="773" as="targetPoint" />
          </mxGeometry>
        </mxCell>
        <mxCell id="hqcHhx7oB-6uk-nyvYdf-2" value="" style="ellipse;whiteSpace=wrap;html=1;aspect=fixed;fillColor=#FFFFFF;" parent="1" vertex="1">
          <mxGeometry x="159" y="791" width="10" height="10" as="geometry" />
        </mxCell>
        <mxCell id="hqcHhx7oB-6uk-nyvYdf-3" value="Subcat&lt;br&gt;_ID" style="text;html=1;strokeColor=none;fillColor=none;align=center;verticalAlign=middle;whiteSpace=wrap;rounded=0;fontStyle=0" parent="1" vertex="1">
          <mxGeometry x="157" y="808" width="36" height="20" as="geometry" />
        </mxCell>
        <mxCell id="AbspemG0DcN9fMY0QWew-2" value="Categorizing" style="rhombus;whiteSpace=wrap;html=1;" vertex="1" parent="1">
          <mxGeometry x="44" y="517" width="80" height="80" as="geometry" />
        </mxCell>
        <mxCell id="AbspemG0DcN9fMY0QWew-3" value="Subcategory" style="text;html=1;strokeColor=none;fillColor=none;align=center;verticalAlign=middle;whiteSpace=wrap;rounded=0;" vertex="1" parent="1">
          <mxGeometry x="153" y="519" width="36" height="30" as="geometry" />
        </mxCell>
        <mxCell id="AbspemG0DcN9fMY0QWew-5" value="Category" style="text;html=1;strokeColor=none;fillColor=none;align=center;verticalAlign=middle;whiteSpace=wrap;rounded=0;" vertex="1" parent="1">
          <mxGeometry x="38" y="627" width="36" height="30" as="geometry" />
        </mxCell>
        <mxCell id="AbspemG0DcN9fMY0QWew-7" value="(1, 1)" style="text;html=1;strokeColor=none;fillColor=none;align=center;verticalAlign=middle;whiteSpace=wrap;rounded=0;" vertex="1" parent="1">
          <mxGeometry x="26" y="699.94" width="36" height="30" as="geometry" />
        </mxCell>
        <mxCell id="AbspemG0DcN9fMY0QWew-8" value="(0, N)" style="text;html=1;strokeColor=none;fillColor=none;align=center;verticalAlign=middle;whiteSpace=wrap;rounded=0;" vertex="1" parent="1">
          <mxGeometry x="24" y="569" width="36" height="30" as="geometry" />
        </mxCell>
      </root>
    </mxGraphModel>
  </diagram>
</mxfile>
